<svg xmlns="http://www.w3.org/2000/svg" xmlns:xlink="http://www.w3.org/1999/xlink" width="500" zoomAndPan="magnify" viewBox="0 0 375 374.999991" height="500" preserveAspectRatio="xMidYMid meet" version="1.0"><defs><clipPath id="b73fb776c3"><path d="M 99.433594 79 L 275.683594 79 L 275.683594 296.691406 L 99.433594 296.691406 Z M 99.433594 79 " clip-rule="nonzero"/></clipPath></defs><rect x="-37.5" width="450" fill="#ffffff" y="-37.499999" height="449.999989" fill-opacity="1"/><rect x="-37.5" width="450" fill="#ffffff" y="-37.499999" height="449.999989" fill-opacity="1"/><g clip-path="url(#b73fb776c3)"><path fill="#051f30" d="M 136.464844 254.476562 L 136.464844 185.578125 L 190.035156 185.578125 L 190.035156 149.878906 L 139.003906 149.878906 C 139.003906 129.46875 155.585938 112.890625 175.996094 112.890625 L 244.894531 112.890625 L 244.894531 167.394531 C 244.894531 196.496094 221.320312 220.074219 192.21875 220.074219 L 163.25 220.074219 L 163.25 255.726562 L 192.929688 255.726562 C 238.523438 255.726562 275.511719 218.78125 275.511719 173.144531 L 275.511719 79.730469 L 192.398438 79.730469 C 123.71875 78.441406 99.476562 121.3125 99.476562 172.652344 L 99.476562 296.550781 Z M 136.464844 254.476562 " fill-opacity="1" fill-rule="nonzero"/></g></svg>